<?xml version="1.0" standalone ="no"?><!DOCTYPE svg PUBLIC "-//W3C//DTD SVG 1.1//EN"
        "http://www.w3.org/Graphics/SVG/1.1/DTD/svg11.dtd">
<svg height="1024" node-id="1" sillyvg="true" template-height="1024" template-width="1024" version="1.1"
     viewBox="0 0 1024 1024" width="1024" xmlns="http://www.w3.org/2000/svg" xmlns:xlink="http://www.w3.org/1999/xlink">
    <defs node-id="25"></defs>
    <g node-id="27">
        <g node-id="28">
            <path d="M 371.80 189.10 L 886.90 189.10 L 942.60 244.60 L 942.60 564.20 L 371.80 564.20 Z" fill="#efefef"
                  fill-rule="evenodd" group-id="1,2" id="矩形" node-id="7" stroke="none" target-height="375.1"
                  target-width="570.8" target-x="371.8" target-y="189.1"></path>
            <path d="M 887.10 189.10 L 942.60 244.60 L 887.10 244.60 Z" fill="#cccccc" fill-rule="evenodd"
                  group-id="1,2" id="矩形" node-id="8" stroke="none" target-height="55.5" target-width="55.5"
                  target-x="887.1" target-y="189.1"></path>
        </g>
        <path d="M 137.00 179.40 L 138.60 179.60 L 140.10 180.20 L 141.30 181.20 L 142.30 182.40 L 142.90 183.80 L 143.10 185.50 L 139.90 234.80 L 306.90 234.80 L 303.70 185.90 L 304.00 183.80 L 304.60 182.40 L 306.80 180.20 L 308.20 179.60 L 309.80 179.40 L 311.90 179.60 L 313.40 180.20 L 315.70 182.40 L 316.40 183.80 L 316.80 185.50 L 358.80 841.40 L 345.70 841.40 L 338.60 730.50 L 108.20 730.50 L 101.10 841.40 L 88.10 841.40 L 130.10 185.50 L 130.40 183.80 L 131.10 182.40 L 132.10 181.10 L 133.40 180.20 L 134.90 179.60 L 137.00 179.40 Z M 329.80 593.50 L 117.00 593.50 L 108.80 720.70 L 338.00 720.70 L 329.80 593.50 Z M 318.10 410.90 L 128.70 410.90 L 117.60 583.70 L 329.20 583.70 L 318.10 410.90 Z M 307.50 244.60 L 139.30 244.60 L 129.30 401.10 L 317.50 401.10 L 307.50 244.60 Z"
              fill="#999999" fill-rule="evenodd" group-id="1" id="形状结合" node-id="9" stroke="none"
              target-height="662" target-width="270.69998" target-x="88.1" target-y="179.4"></path>
        <path d="M 542.90 367.80 L 577.30 367.80 L 577.30 424.90 L 542.90 424.90 L 542.90 476.10 L 481.00 476.10 L 481.00 424.90 L 358.80 424.90 L 358.80 387.30 L 456.90 195.70 L 542.90 195.70 L 542.90 367.80 Z M 481.00 267.40 L 431.00 367.80 L 481.00 367.80 L 481.00 267.40 Z"
              fill="#5478eb" fill-rule="nonzero" group-id="1" id="形状" node-id="10" stroke="#2d4fde"
              stroke-linecap="butt" stroke-width="11.740128" target-height="280.40002" target-width="218.5"
              target-x="358.8" target-y="195.7"></path>
        <g node-id="29">
            <path d="M 683.50 515.50 L 674.70 513.30 L 666.50 510.70 L 658.90 507.70 L 651.90 504.40 L 645.40 500.60 L 639.30 496.50 L 633.80 492.00 L 628.60 487.10 L 623.80 481.80 L 619.50 476.10 L 615.50 469.90 L 611.90 463.20 L 608.80 456.10 L 606.10 448.60 L 603.80 440.60 L 602.10 432.20 L 600.90 423.20 L 600.10 413.60 L 600.00 403.40 L 600.40 392.60 L 601.50 381.10 L 603.30 368.80 L 605.70 355.70 L 608.80 342.80 L 612.20 330.90 L 615.90 319.90 L 619.90 309.80 L 624.20 300.60 L 628.70 292.10 L 633.50 284.40 L 638.50 277.30 L 643.80 270.90 L 649.40 265.10 L 655.20 259.90 L 661.10 255.20 L 667.30 251.20 L 673.60 247.70 L 680.10 244.80 L 686.80 242.40 L 693.80 240.50 L 701.00 239.20 L 708.40 238.40 L 716.20 238.20 L 724.40 238.60 L 732.90 239.50 L 741.80 241.10 L 750.70 243.30 L 758.90 245.90 L 766.50 248.90 L 773.60 252.30 L 780.10 256.10 L 786.20 260.20 L 791.80 264.70 L 796.90 269.60 L 801.70 275.00 L 806.00 280.70 L 810.00 286.90 L 813.50 293.50 L 816.60 300.70 L 819.30 308.20 L 821.50 316.20 L 823.20 324.70 L 824.40 333.70 L 825.10 343.30 L 825.30 353.50 L 824.80 364.30 L 823.70 375.80 L 822.00 388.10 L 819.50 401.20 L 816.40 414.10 L 813.10 426.00 L 809.40 437.00 L 805.40 447.10 L 801.10 456.30 L 796.60 464.80 L 791.80 472.50 L 786.80 479.50 L 781.50 485.90 L 776.00 491.70 L 770.30 496.90 L 764.30 501.50 L 758.20 505.50 L 751.90 509.00 L 745.50 511.90 L 738.80 514.30 L 731.80 516.10 L 724.60 517.40 L 717.10 518.20 L 709.30 518.40 L 701.10 518.10 L 692.50 517.10 L 683.50 515.50 Z M 695.00 461.40 L 699.40 462.10 L 703.60 462.20 L 707.70 461.70 L 711.60 460.80 L 715.50 459.20 L 719.30 457.10 L 723.20 454.30 L 727.00 450.80 L 730.80 446.50 L 734.20 442.00 L 737.50 436.80 L 740.70 430.80 L 743.80 424.10 L 746.80 416.40 L 749.60 407.80 L 752.30 398.20 L 754.90 387.40 L 757.00 376.50 L 758.40 366.50 L 759.30 357.40 L 759.70 349.20 L 759.60 341.70 L 759.10 335.00 L 758.20 328.90 L 757.00 323.30 L 755.20 317.90 L 753.20 313.20 L 750.80 309.10 L 748.20 305.50 L 745.30 302.50 L 742.00 300.00 L 738.50 298.00 L 734.60 296.30 L 730.30 295.10 L 725.90 294.50 L 721.70 294.40 L 717.60 294.90 L 713.70 295.90 L 709.80 297.40 L 705.90 299.60 L 702.10 302.40 L 698.30 305.90 L 694.50 310.20 L 691.10 314.80 L 687.80 320.10 L 684.50 326.00 L 681.40 332.80 L 678.40 340.50 L 675.60 349.10 L 672.90 358.70 L 670.40 369.50 L 668.30 380.30 L 666.80 390.20 L 665.90 399.30 L 665.60 407.40 L 665.70 414.90 L 666.20 421.60 L 667.10 427.70 L 668.30 433.20 L 670.10 438.70 L 672.10 443.40 L 674.50 447.50 L 677.10 451.00 L 680.00 454.00 L 683.20 456.60 L 686.80 458.60 L 690.70 460.30 L 695.00 461.40 Z"
                  fill="#5478eb" fill-rule="nonzero" group-id="1,3" id="形状" node-id="11" stroke="#2d4fde"
                  stroke-linecap="butt" stroke-width="11.740128" target-height="280.2" target-width="225.29999"
                  target-x="600" target-y="238.2"></path>
        </g>
        <g node-id="30">
            <path d="M 839.70 689.80 L 869.50 706.90 L 840.90 756.40 L 811.10 739.20 L 785.50 783.60 L 731.80 752.60 L 757.50 708.30 L 651.60 647.20 L 670.40 614.60 L 851.20 497.70 L 925.80 540.70 L 839.70 689.80 Z M 836.20 571.90 L 742.80 633.80 L 786.00 658.80 L 836.20 571.90 Z"
                  fill="#5478eb" fill-rule="nonzero" group-id="1,4" id="形状备份" node-id="12" stroke="#2d4fde"
                  stroke-linecap="butt" stroke-width="11.740128" target-height="285.89996" target-width="274.2"
                  target-x="651.6" target-y="497.7"></path>
        </g>
        <g node-id="31">
            <path d="M 417.20 406.00 L 281.40 556.40 L 195.50 497.90 L 152.80 358.90 L 157.10 354.60 L 160.40 350.60 L 162.80 346.80 L 164.50 343.30 L 165.60 339.90 L 166.00 336.80 L 166.00 331.80 L 165.30 324.10 L 163.50 313.00 L 160.30 297.40 L 159.80 287.40 L 159.10 280.10 L 158.30 275.10 L 156.40 269.60 L 154.00 265.70 L 149.20 260.10 L 144.20 256.20 L 138.80 253.70 L 136.40 253.00 L 131.60 252.20 L 130.40 252.50 L 129.60 253.30 L 128.80 256.10 L 129.10 261.60 L 130.00 265.60 L 132.40 273.90 L 138.50 289.80 L 130.90 290.90 L 127.40 291.10 L 119.60 290.70 L 115.80 289.80 L 114.10 289.10 L 102.30 283.10 L 96.70 281.60 L 92.80 281.90 L 91.00 282.60 L 89.50 283.90 L 88.10 285.90 L 87.20 287.90 L 87.00 290.00 L 87.40 292.20 L 88.40 294.60 L 90.20 297.20 L 93.10 300.20 L 97.30 303.50 L 103.10 307.20 L 110.90 311.40 L 105.10 309.90 L 100.50 309.20 L 97.00 309.00 L 94.20 309.40 L 92.10 310.00 L 90.50 311.00 L 89.40 312.30 L 88.50 313.90 L 88.10 315.90 L 88.10 318.00 L 88.70 320.00 L 89.90 321.80 L 93.30 324.80 L 99.00 327.90 L 102.50 329.30 L 110.90 331.60 L 104.70 332.00 L 99.40 332.70 L 96.90 333.40 L 94.00 335.00 L 93.20 336.80 L 93.50 338.10 L 94.40 339.50 L 96.10 341.30 L 99.20 343.50 L 103.90 346.20 L 110.90 349.40 L 104.30 348.20 L 100.10 347.70 L 97.70 347.80 L 96.30 348.20 L 95.70 348.70 L 95.50 349.40 L 95.80 350.60 L 98.30 353.80 L 104.40 358.90 L 103.90 421.70 L 104.10 448.00 L 104.80 474.30 L 106.10 498.40 L 107.00 509.30 L 108.10 518.20 L 109.90 528.30 L 110.90 531.60 L 113.50 538.00 L 118.10 547.20 L 125.30 559.90 L 135.70 577.10 L 150.40 599.50 L 169.90 628.40 L 195.50 664.80 L 195.50 841.40 L 483.30 841.40 L 466.00 691.50 L 496.50 688.90 L 515.70 687.70 L 526.80 687.40 L 555.30 687.50 L 578.20 687.10 L 592.90 686.50 L 605.30 685.70 L 615.60 684.60 L 623.60 683.40 L 636.10 680.40 L 640.90 678.70 L 645.70 676.50 L 649.70 674.10 L 652.90 671.40 L 655.50 668.60 L 660.30 662.00 L 665.90 653.20 L 672.50 641.80 L 680.20 627.20 L 689.10 609.00 L 699.40 586.60 L 711.30 559.40 L 724.90 526.80 L 729.60 521.70 L 733.40 516.90 L 736.30 512.50 L 738.40 508.50 L 739.90 504.70 L 740.80 501.20 L 741.20 497.90 L 741.00 494.40 L 739.00 485.50 L 735.60 475.60 L 731.30 466.10 L 727.10 458.70 L 724.00 455.10 L 722.50 454.60 L 721.70 455.30 L 721.00 456.70 L 720.30 459.50 L 720.00 464.30 L 720.00 471.90 L 720.80 483.40 L 718.90 472.90 L 717.20 466.10 L 715.80 462.00 L 714.60 459.80 L 713.60 458.80 L 712.70 458.50 L 711.80 458.80 L 711.00 459.70 L 710.00 461.70 L 709.10 465.40 L 708.30 471.50 L 707.60 481.00 L 706.70 473.10 L 705.60 467.40 L 704.40 463.60 L 703.20 461.10 L 702.00 459.60 L 700.80 458.80 L 699.50 458.50 L 698.30 458.80 L 697.10 459.60 L 696.00 461.00 L 695.00 463.50 L 694.10 467.40 L 693.40 473.00 L 693.00 481.00 L 692.60 473.20 L 691.70 467.60 L 690.70 463.70 L 689.40 461.20 L 688.10 459.60 L 686.70 458.80 L 685.20 458.50 L 683.90 458.70 L 682.80 459.40 L 681.80 460.70 L 681.00 462.80 L 680.30 465.90 L 679.90 470.50 L 680.00 477.00 L 680.70 485.80 L 678.00 487.90 L 675.70 489.20 L 673.70 489.80 L 672.00 489.90 L 670.40 489.40 L 658.90 480.90 L 652.50 477.10 L 649.40 475.70 L 646.90 475.00 L 645.30 474.90 L 644.10 475.30 L 643.20 476.10 L 642.50 477.60 L 642.30 479.30 L 642.80 481.40 L 644.30 484.60 L 646.70 488.40 L 656.10 501.20 L 661.80 510.00 L 663.40 513.00 L 663.80 516.70 L 663.10 523.10 L 662.50 524.50 L 661.20 526.60 L 658.50 529.80 L 631.90 556.40 L 619.40 569.80 L 595.00 597.30 L 411.90 578.30 L 418.60 572.90 L 424.50 567.40 L 429.70 561.90 L 434.30 556.20 L 438.30 550.40 L 441.70 544.50 L 444.60 538.50 L 446.90 532.30 L 448.70 526.00 L 450.10 519.50 L 450.90 512.70 L 451.10 505.80 L 450.80 497.90 L 450.00 489.70 L 448.50 481.10 L 446.40 472.00 L 443.60 462.40 L 440.10 452.30 L 435.70 441.70 L 430.50 430.40 L 424.30 418.60 L 417.20 406.00 Z"
                  fill="#ffffff" fill-rule="evenodd" group-id="1,5" id="路径-46" node-id="14" stroke="#000000"
                  stroke-linecap="butt" stroke-width="3.2611465" target-height="589.2" target-width="654.2"
                  target-x="87" target-y="252.2"></path>
            <path d="M 207.30 506.90 L 137.40 578.20" fill="none" group-id="1,5" id="路径-47" node-id="15"
                  stroke="#000000" stroke-linecap="butt" stroke-width="3.2611465" target-height="71.30002"
                  target-width="69.90001" target-x="137.4" target-y="506.9"></path>
            <path d="M 244.00 546.80 L 237.10 583.20 L 231.30 611.00 L 226.40 631.70 L 222.40 646.70 L 219.20 657.00 L 215.90 665.60 L 212.50 672.90 L 209.20 679.00 L 205.80 684.00 L 202.40 688.10 L 198.90 691.50 L 195.50 694.10 L 195.50 844.60 L 485.10 844.60 L 466.00 691.50 L 434.20 660.90 L 434.20 565.80 L 402.60 565.80 L 402.60 657.00 L 253.00 649.80 L 268.30 546.80 L 244.00 546.80 Z"
                  fill="#ffffff" fill-rule="evenodd" group-id="1,5" id="路径-48" node-id="16" stroke="#000000"
                  stroke-linecap="butt" stroke-width="3.2611465" target-height="297.8" target-width="289.6"
                  target-x="195.5" target-y="546.8"></path>
            <path d="M 495.70 587.10 L 495.70 688.90" fill="none" group-id="1,5" id="路径-49" node-id="17"
                  stroke="#000000" stroke-linecap="butt" stroke-width="3.2611465" target-height="101.80005"
                  target-width="0" target-x="495.7" target-y="587.1"></path>
        </g>
        <path d="M 414.10 474.90 L 416.10 464.10 L 418.10 455.70 L 420.00 449.10 L 421.90 444.20 L 423.60 440.60 L 425.90 437.10 L 428.90 433.20 L 432.80 428.90 L 437.80 424.00 L 443.90 418.70 L 446.20 416.10 L 447.80 413.40 L 448.90 410.70 L 449.40 407.90 L 449.50 404.90 L 449.10 401.80 L 448.00 398.40 L 446.60 395.20 L 444.80 392.50 L 442.60 390.30 L 440.10 388.40 L 437.20 386.80 L 433.90 385.60 L 430.00 384.80 L 422.50 378.10 L 415.00 372.30 L 407.60 367.10 L 400.30 362.60 L 393.00 358.80 L 385.80 355.60 L 378.70 353.00 L 371.50 351.00 L 364.40 349.50 L 357.20 348.60 L 350.00 348.20 L 342.70 348.30 L 335.40 349.00 L 328.50 350.20 L 322.10 352.00 L 316.20 354.20 L 310.50 356.90 L 305.30 359.80 L 300.50 363.10 L 296.00 366.70 L 288.30 374.10 L 283.20 380.00 L 279.10 385.60 L 275.50 391.10 L 270.60 400.20 L 268.10 406.00 L 259.70 410.70 L 252.10 416.80 L 247.20 422.10 L 244.90 425.30 L 242.90 428.70 L 241.20 432.40 L 239.90 436.50 L 238.90 441.80 L 238.40 446.80 L 238.60 451.70 L 239.30 456.50 L 240.50 461.20 L 242.40 465.80 L 244.90 470.30 L 248.00 474.90 L 242.10 480.40 L 237.00 485.80 L 232.70 491.30 L 229.10 496.80 L 226.10 502.20 L 223.70 507.80 L 221.90 513.40 L 220.60 519.00 L 219.90 524.80 L 219.70 530.70 L 220.10 536.80 L 221.10 543.00 L 222.70 549.50 L 224.90 556.20 L 227.90 563.20 L 231.60 570.50 L 236.10 578.20 L 240.90 585.20 L 245.80 591.40 L 250.90 596.80 L 256.10 601.40 L 261.50 605.40 L 267.00 608.80 L 272.80 611.60 L 278.70 613.80 L 284.90 615.40 L 291.30 616.50 L 298.00 616.90 L 305.10 616.80 L 312.50 616.00 L 320.40 614.60 L 328.80 612.40 L 337.60 609.40 L 347.00 605.60 L 354.40 608.80 L 361.40 611.30 L 368.20 613.10 L 374.60 614.20 L 380.80 614.80 L 386.80 614.80 L 392.70 614.20 L 398.30 613.10 L 403.80 611.50 L 409.30 609.20 L 414.60 606.40 L 419.90 603.00 L 425.10 599.00 L 430.30 594.20 L 435.50 588.60 L 438.80 584.50 L 441.40 580.60 L 445.20 573.30 L 446.80 568.20 L 447.80 563.40 L 448.10 558.70 L 447.90 554.10 L 447.20 549.70 L 446.00 545.50 L 442.70 537.50 L 437.10 528.60 L 433.40 524.10 L 426.20 516.70 L 409.30 503.00 L 400.90 495.40 L 396.60 491.10 L 392.50 486.50 L 388.90 481.80 L 386.10 477.40 L 384.70 474.30 L 383.90 471.50 L 383.70 469.00 L 384.00 467.20 L 384.60 465.50 L 385.70 463.90 L 387.30 462.40 L 390.50 460.40 L 393.40 459.10 L 396.00 458.40 L 398.40 458.30 L 400.70 458.70 L 403.00 459.60 L 405.20 461.00 L 407.40 463.20 L 409.60 466.00 L 411.80 469.90 L 414.10 474.90 Z"
              fill="#32323b" fill-rule="evenodd" group-id="1" id="路径-50" node-id="18" stroke="#000000"
              stroke-linecap="butt" stroke-width="3.2611465" target-height="268.7" target-width="229.8" target-x="219.7"
              target-y="348.2"></path>
        <path d="M 622.90 248.90 L 624.30 244.70 L 625.70 241.60 L 627.20 239.40 L 628.60 237.90 L 630.00 237.00 L 631.50 236.70 L 635.30 237.70 L 641.50 241.30 L 645.80 244.60 L 646.80 239.10 L 647.50 236.90 L 649.70 232.70 L 651.30 231.10 L 652.80 230.40 L 654.40 230.10 L 656.30 230.20 L 658.50 231.00 L 661.10 232.40 L 664.20 234.80"
              fill="none" group-id="1" id="路径-51" node-id="19" stroke="#000000" stroke-linecap="round"
              stroke-width="3.2611465" target-height="18.799988" target-width="41.299988" target-x="622.9"
              target-y="230.1"></path>
        <path d="M 836.90 438.20 L 838.10 441.80 L 838.40 444.60 L 837.80 448.90 L 836.90 451.50 L 834.70 454.40 L 827.90 459.80 L 828.70 469.80 L 827.90 476.20 L 825.30 482.20 L 819.70 490.50"
              fill="none" group-id="1" id="路径-52" node-id="20" stroke="#000000" stroke-linecap="round"
              stroke-width="3.2611465" target-height="52.299988" target-width="18.700012" target-x="819.7"
              target-y="438.2"></path>
        <path d="M 853.50 438.20 L 856.40 442.80 L 857.80 445.60 L 858.10 447.30 L 857.70 450.10 L 856.90 452.20 L 855.80 454.10 L 853.50 456.40 L 856.70 461.20 L 857.60 463.50 L 858.50 467.70 L 858.10 471.10"
              fill="none" group-id="1" id="路径-53" node-id="21" stroke="#000000" stroke-linecap="round"
              stroke-width="3.2611465" target-height="32.899994" target-width="5" target-x="853.5"
              target-y="438.2"></path>
        <path d="M 699.40 773.70 L 704.10 774.10 L 707.60 774.70 L 710.10 775.50 L 711.90 776.50 L 713.10 777.70 L 713.90 779.10 L 714.40 781.00 L 714.50 783.50 L 714.10 786.80 L 713.10 791.10 L 732.80 791.10"
              fill="none" group-id="1" id="路径-54" node-id="22" stroke="#000000" stroke-linecap="round"
              stroke-width="3.2611465" target-height="17.399963" target-width="33.399963" target-x="699.4"
              target-y="773.7"></path>
        <path d="M 71.70 841.40 L 658.80 841.40 L 658.80 847.90 L 71.70 847.90 Z" fill="#000000" fill-rule="evenodd"
              group-id="1" id="矩形" node-id="23" stroke="none" target-height="6.5" target-width="587.1" target-x="71.7"
              target-y="841.4"></path>
    </g>
</svg>
