<?xml version="1.0" encoding="UTF-8"?>
<svg width="28px" height="28px" viewBox="0 0 28 28" version="1.1" xmlns="http://www.w3.org/2000/svg" xmlns:xlink="http://www.w3.org/1999/xlink">
    <title>编组 62备份</title>
    <g id="页面-1" stroke="none" stroke-width="1" fill="none" fill-rule="evenodd">
        <g id="弹窗" transform="translate(-53, -40)">
            <g id="编组-62备份" transform="translate(53, 40)">
                <rect id="矩形" fill="#333333" opacity="0" x="0" y="0" width="28" height="28" rx="2"></rect>
                <g id="编组-59" transform="translate(2, 7)" stroke="#333333" stroke-linejoin="round" stroke-width="2">
                    <path d="M11.6666667,14 C18.1099917,14 23.3333333,7 23.3333333,7 C23.3333333,7 18.1099917,0 11.6666667,0 C5.22334167,0 0,7 0,7 C0,7 5.22334167,14 11.6666667,14 Z" id="路径"></path>
                    <path d="M11.6666667,9.91666667 C13.2774833,9.91666667 14.5833333,8.61081667 14.5833333,7 C14.5833333,5.38918333 13.2774833,4.08333333 11.6666667,4.08333333 C10.05585,4.08333333 8.75,5.38918333 8.75,7 C8.75,8.61081667 10.05585,9.91666667 11.6666667,9.91666667 Z" id="路径"></path>
                </g>
            </g>
        </g>
    </g>
</svg>