<?xml version="1.0" encoding="UTF-8"?>
<svg width="28px" height="28px" viewBox="0 0 28 28" version="1.1" xmlns="http://www.w3.org/2000/svg" xmlns:xlink="http://www.w3.org/1999/xlink">
    <title>编组 58</title>
    <g id="页面-1" stroke="none" stroke-width="1" fill="none" fill-rule="evenodd">
        <g id="弹窗" transform="translate(-311, -40)">
            <g id="编组-61" transform="translate(311, 40)">
                <rect id="矩形" fill="#FFFFFF" opacity="0.100000001" x="0" y="0" width="28" height="28" rx="2"></rect>
                <g id="编组-60" transform="translate(2, 2)" stroke="#333333" stroke-linecap="round" stroke-linejoin="round" stroke-width="2">
                    <path d="M12.000312,22.1663972 C13.2741139,23.306519 14.9562764,23.99976 16.8003192,23.99976 C20.7767652,23.99976 24.00033,20.7761952 24.00033,16.7997492 C24.00033,13.6192044 21.9380669,10.9203404 19.0777426,9.96741895" id="路径"></path>
                    <path d="M13.9029749,14.1660452 C14.2237953,14.9818065 14.4000156,15.8703478 14.4000156,16.7999892 C14.4000156,20.7764352 11.1764508,24 7.2000048,24 C3.22355284,24 0,20.7764352 0,16.7999892 C0,13.6109844 2.07324911,10.9062404 4.94538142,9.96009894" id="路径"></path>
                    <path d="M12.000312,14.4000456 C15.976758,14.4000456 19.2003228,11.1764808 19.2003228,7.2000348 C19.2003228,3.22355284 15.976758,0 12.000312,0 C8.02386604,0 4.8003012,3.22355284 4.8003012,7.2000348 C4.8003012,11.1764808 8.02386604,14.4000456 12.000312,14.4000456 Z" id="路径"></path>
                </g>
            </g>
        </g>
    </g>
</svg>