<?xml version="1.0" standalone="no"?><!DOCTYPE svg PUBLIC "-//W3C//DTD SVG 1.1//EN" "http://www.w3.org/Graphics/SVG/1.1/DTD/svg11.dtd"><svg t="1765867313702" class="icon" viewBox="0 0 1024 1024" version="1.1" xmlns="http://www.w3.org/2000/svg" p-id="11115" width="256" height="256" xmlns:xlink="http://www.w3.org/1999/xlink"><path d="M77.76 77.782v869.13h869.13V77.781H77.76z m278.126 834.364H112.53V668.794h243.357v243.352z m0-278.121H112.53V390.669h243.357v243.356z m0-278.117H112.53v-243.36h243.357v243.36z m278.12 556.238H390.648V668.794h243.36v243.352z m0-278.121H390.648V390.669h243.36v243.356z m0-278.117H390.648v-243.36h243.36v243.36z m278.119 556.238H668.772V668.794h243.353v243.352z m0-278.121H668.772V390.669h243.353v243.356z m0-278.117H668.772v-243.36h243.353v243.36z" fill="" p-id="11116"></path></svg>